<?xml version="1.0" encoding="UTF-8" standalone="no"?>
<!-- Uploaded to: SVG Repo, www.svgrepo.com, Generator: SVG Repo Mixer Tools -->

<svg
   fill="#ffffff"
   width="24px"
   height="24px"
   viewBox="0 0 24 24"
   role="img"
   version="1.1"
   id="svg2"
   xmlns="http://www.w3.org/2000/svg">
  <defs
     id="defs2" />
  <path
     d="M11.8277 23.0319C18.1878 23.0319 23.3437 17.8761 23.3437 11.516C23.3437 5.15587 18.1878 0 11.8277 0C5.46764 0 0.311768 5.15587 0.311768 11.516C0.311768 17.8761 5.46764 23.0319 11.8277 23.0319Z"
     fill="#CB14E2"
     id="path1" />
  <path
     d="m 11.079991,16.079705 a 0.53989848,0.49705661 0 1 1 -0.0015,0.994112 0.53989848,0.49705661 0 0 1 0.0015,-0.994112 m 8.466337,-3.073546 a 0.53989807,0.49705623 0 1 1 7.68e-4,-0.994112 0.53989807,0.49705623 0 0 1 -7.68e-4,0.994112 m 0,-2.033476 a 1.6711492,1.5385407 0 0 0 -1.669613,1.537127 c 0,0.164743 0.02995,0.328778 0.08832,0.488571 l -5.514946,2.703052 a 1.6627013,1.5307631 0 0 0 -1.370097,-0.662505 c -0.636665,0 -1.2164984,0.335848 -1.4975832,0.859772 L 4.6280955,13.493316 C 4.1043254,13.240192 3.7126498,12.446882 3.7541213,11.724277 3.7756251,11.34742 3.9169355,11.054701 4.132741,10.941573 c 0.1367025,-0.07071 0.3010527,-0.06505 0.4761547,0.01909 l 0.032256,0.01626 c 1.3132653,0.636345 5.6094083,2.720021 5.7906543,2.797089 0.278781,0.119492 0.433915,0.167571 0.91007,-0.0403 l 8.881052,-4.252198 c 0.130559,-0.045251 0.282621,-0.1605004 0.282621,-0.3351417 0,-0.2418111 -0.271869,-0.3372628 -0.272637,-0.3372628 C 19.727574,8.5863898 18.951134,8.2519551 18.193895,7.9252981 16.574969,7.2274398 14.740238,6.4369579 13.934615,6.0480805 c -0.6958,-0.3351417 -1.255666,-0.052322 -1.355505,0.00424 l -0.193534,0.088381 C 8.759121,7.7916631 3.9054156,10.00473 3.6289387,10.159574 c -0.4938184,0.277163 -0.800247,0.829369 -0.8401826,1.514501 -0.061439,1.086736 0.539898,2.220136 1.4008163,2.635175 l 5.2392371,2.487401 a 1.6703812,1.5378336 0 0 0 1.6511815,1.316527 1.6719172,1.5392477 0 0 0 1.668845,-1.513086 l 5.770687,-2.879815 c 0.291837,0.210701 0.655097,0.32595 1.026805,0.32595 a 1.6711492,1.5385407 0 0 0 1.669613,-1.537126 1.6711492,1.5385407 0 0 0 -1.669613,-1.537127"
     id="path2"
     style="stroke-width:0.736891" />
</svg>
